<svg id="visual" viewBox="0 0 1920 1080" width="1920" height="1080" xmlns="http://www.w3.org/2000/svg" xmlns:xlink="http://www.w3.org/1999/xlink" version="1.1"><rect x="0" y="0" width="1920" height="1080" fill="#f6f6f6"></rect><defs><linearGradient id="grad1_0" x1="43.8%" y1="100%" x2="100%" y2="0%"><stop offset="14.444444444444446%" stop-color="#f6f6f6" stop-opacity="1"></stop><stop offset="85.55555555555554%" stop-color="#f6f6f6" stop-opacity="1"></stop></linearGradient></defs><defs><linearGradient id="grad2_0" x1="0%" y1="100%" x2="56.3%" y2="0%"><stop offset="14.444444444444446%" stop-color="#f6f6f6" stop-opacity="1"></stop><stop offset="85.55555555555554%" stop-color="#f6f6f6" stop-opacity="1"></stop></linearGradient></defs><g transform="translate(1920, 1080)"><path d="M-324 0C-324 -47 -324 -94 -299.3 -124C-274.6 -154 -225.2 -167.1 -193 -193C-160.9 -219 -146 -257.8 -116.7 -281.8C-87.4 -305.8 -43.7 -314.9 0 -324L0 0Z" fill="#ab0000"></path></g><g transform="translate(0, 0)"><path d="M324 0C307.4 38.8 290.8 77.7 273.5 113.3C256.2 148.9 238.1 181.2 214.3 214.3C190.4 247.3 160.7 280.9 124 299.3C87.3 317.7 43.7 320.9 0 324L0 0Z" fill="#ab0000"></path></g></svg>