<svg id="visual" viewBox="0 0 1920 1080" width="1920" height="1080" xmlns="http://www.w3.org/2000/svg" xmlns:xlink="http://www.w3.org/1999/xlink" version="1.1"><rect x="0" y="0" width="1920" height="1080" fill="#ffffff"></rect><path d="M1004 0L973.8 36C943.7 72 883.3 144 885.3 216C887.3 288 951.7 360 952.2 432C952.7 504 889.3 576 867.8 648C846.3 720 866.7 792 890.8 864C915 936 943 1008 957 1044L971 1080L0 1080L0 1044C0 1008 0 936 0 864C0 792 0 720 0 648C0 576 0 504 0 432C0 360 0 288 0 216C0 144 0 72 0 36L0 0Z" fill="#ed0600"></path><path d="M899 0L892.2 36C885.3 72 871.7 144 833.5 216C795.3 288 732.7 360 711.7 432C690.7 504 711.3 576 728.8 648C746.3 720 760.7 792 788.8 864C817 936 859 1008 880 1044L901 1080L0 1080L0 1044C0 1008 0 936 0 864C0 792 0 720 0 648C0 576 0 504 0 432C0 360 0 288 0 216C0 144 0 72 0 36L0 0Z" fill="#d90018"></path><path d="M651 0L660.2 36C669.3 72 687.7 144 694.8 216C702 288 698 360 683.8 432C669.7 504 645.3 576 618.5 648C591.7 720 562.3 792 584.8 864C607.3 936 681.7 1008 718.8 1044L756 1080L0 1080L0 1044C0 1008 0 936 0 864C0 792 0 720 0 648C0 576 0 504 0 432C0 360 0 288 0 216C0 144 0 72 0 36L0 0Z" fill="#c40023"></path><path d="M498 0L516.7 36C535.3 72 572.7 144 594.7 216C616.7 288 623.3 360 594.8 432C566.3 504 502.7 576 488.2 648C473.7 720 508.3 792 527.2 864C546 936 549 1008 550.5 1044L552 1080L0 1080L0 1044C0 1008 0 936 0 864C0 792 0 720 0 648C0 576 0 504 0 432C0 360 0 288 0 216C0 144 0 72 0 36L0 0Z" fill="#ad002a"></path><path d="M306 0L314 36C322 72 338 144 348.7 216C359.3 288 364.7 360 356.8 432C349 504 328 576 346.5 648C365 720 423 792 431.8 864C440.7 936 400.3 1008 380.2 1044L360 1080L0 1080L0 1044C0 1008 0 936 0 864C0 792 0 720 0 648C0 576 0 504 0 432C0 360 0 288 0 216C0 144 0 72 0 36L0 0Z" fill="#950b2d"></path><path d="M340 0L320.7 36C301.3 72 262.7 144 253.8 216C245 288 266 360 262 432C258 504 229 576 210.7 648C192.3 720 184.7 792 192.5 864C200.3 936 223.7 1008 235.3 1044L247 1080L0 1080L0 1044C0 1008 0 936 0 864C0 792 0 720 0 648C0 576 0 504 0 432C0 360 0 288 0 216C0 144 0 72 0 36L0 0Z" fill="#7d132e"></path><path d="M93 0L92.2 36C91.3 72 89.7 144 109 216C128.3 288 168.7 360 173.3 432C178 504 147 576 124.3 648C101.7 720 87.3 792 104.3 864C121.3 936 169.7 1008 193.8 1044L218 1080L0 1080L0 1044C0 1008 0 936 0 864C0 792 0 720 0 648C0 576 0 504 0 432C0 360 0 288 0 216C0 144 0 72 0 36L0 0Z" fill="#65172c"></path></svg>