<svg id="visual" viewBox="0 0 1920 1080" width="1920" height="1080" xmlns="http://www.w3.org/2000/svg" xmlns:xlink="http://www.w3.org/1999/xlink" version="1.1"><rect x="0" y="0" width="1920" height="1080" fill="#f2f9ff"></rect><path d="M0 709L45.7 713.8C91.3 718.7 182.7 728.3 274.2 720.3C365.7 712.3 457.3 686.7 548.8 671.3C640.3 656 731.7 651 823 650.3C914.3 649.7 1005.7 653.3 1097 667.7C1188.3 682 1279.7 707 1371.2 720.2C1462.7 733.3 1554.3 734.7 1645.8 728.2C1737.3 721.7 1828.7 707.3 1874.3 700.2L1920 693L1920 1081L1874.3 1081C1828.7 1081 1737.3 1081 1645.8 1081C1554.3 1081 1462.7 1081 1371.2 1081C1279.7 1081 1188.3 1081 1097 1081C1005.7 1081 914.3 1081 823 1081C731.7 1081 640.3 1081 548.8 1081C457.3 1081 365.7 1081 274.2 1081C182.7 1081 91.3 1081 45.7 1081L0 1081Z" fill="#fa7268"></path><path d="M0 795L45.7 783.7C91.3 772.3 182.7 749.7 274.2 749C365.7 748.3 457.3 769.7 548.8 773.8C640.3 778 731.7 765 823 774.5C914.3 784 1005.7 816 1097 825.5C1188.3 835 1279.7 822 1371.2 805.3C1462.7 788.7 1554.3 768.3 1645.8 767.3C1737.3 766.3 1828.7 784.7 1874.3 793.8L1920 803L1920 1081L1874.3 1081C1828.7 1081 1737.3 1081 1645.8 1081C1554.3 1081 1462.7 1081 1371.2 1081C1279.7 1081 1188.3 1081 1097 1081C1005.7 1081 914.3 1081 823 1081C731.7 1081 640.3 1081 548.8 1081C457.3 1081 365.7 1081 274.2 1081C182.7 1081 91.3 1081 45.7 1081L0 1081Z" fill="#ef5f67"></path><path d="M0 839L45.7 839.7C91.3 840.3 182.7 841.7 274.2 844.3C365.7 847 457.3 851 548.8 847.5C640.3 844 731.7 833 823 824.5C914.3 816 1005.7 810 1097 807.5C1188.3 805 1279.7 806 1371.2 816.5C1462.7 827 1554.3 847 1645.8 863.2C1737.3 879.3 1828.7 891.7 1874.3 897.8L1920 904L1920 1081L1874.3 1081C1828.7 1081 1737.3 1081 1645.8 1081C1554.3 1081 1462.7 1081 1371.2 1081C1279.7 1081 1188.3 1081 1097 1081C1005.7 1081 914.3 1081 823 1081C731.7 1081 640.3 1081 548.8 1081C457.3 1081 365.7 1081 274.2 1081C182.7 1081 91.3 1081 45.7 1081L0 1081Z" fill="#e34c67"></path><path d="M0 916L45.7 922.5C91.3 929 182.7 942 274.2 946.7C365.7 951.3 457.3 947.7 548.8 935.7C640.3 923.7 731.7 903.3 823 893C914.3 882.7 1005.7 882.3 1097 882.7C1188.3 883 1279.7 884 1371.2 891.5C1462.7 899 1554.3 913 1645.8 913.3C1737.3 913.7 1828.7 900.3 1874.3 893.7L1920 887L1920 1081L1874.3 1081C1828.7 1081 1737.3 1081 1645.8 1081C1554.3 1081 1462.7 1081 1371.2 1081C1279.7 1081 1188.3 1081 1097 1081C1005.7 1081 914.3 1081 823 1081C731.7 1081 640.3 1081 548.8 1081C457.3 1081 365.7 1081 274.2 1081C182.7 1081 91.3 1081 45.7 1081L0 1081Z" fill="#d53867"></path><path d="M0 946L45.7 957.7C91.3 969.3 182.7 992.7 274.2 1006.5C365.7 1020.3 457.3 1024.7 548.8 1018C640.3 1011.3 731.7 993.7 823 986.7C914.3 979.7 1005.7 983.3 1097 983.3C1188.3 983.3 1279.7 979.7 1371.2 983.3C1462.7 987 1554.3 998 1645.8 1003C1737.3 1008 1828.7 1007 1874.3 1006.5L1920 1006L1920 1081L1874.3 1081C1828.7 1081 1737.3 1081 1645.8 1081C1554.3 1081 1462.7 1081 1371.2 1081C1279.7 1081 1188.3 1081 1097 1081C1005.7 1081 914.3 1081 823 1081C731.7 1081 640.3 1081 548.8 1081C457.3 1081 365.7 1081 274.2 1081C182.7 1081 91.3 1081 45.7 1081L0 1081Z" fill="#c62368"></path></svg>