<svg id="visual" viewBox="0 0 1920 1080" width="1920" height="1080" xmlns="http://www.w3.org/2000/svg" xmlns:xlink="http://www.w3.org/1999/xlink" version="1.1"><rect x="0" y="0" width="1920" height="1080" fill="#ffffff"></rect><path d="M772 0L768.2 20C764.3 40 756.7 80 738.2 120C719.7 160 690.3 200 657.3 240C624.3 280 587.7 320 601.2 360C614.7 400 678.3 440 690.3 480C702.3 520 662.7 560 631.3 600C600 640 577 680 585.2 720C593.3 760 632.7 800 673.3 840C714 880 756 920 767.8 960C779.7 1000 761.3 1040 752.2 1060L743 1080L0 1080L0 1060C0 1040 0 1000 0 960C0 920 0 880 0 840C0 800 0 760 0 720C0 680 0 640 0 600C0 560 0 520 0 480C0 440 0 400 0 360C0 320 0 280 0 240C0 200 0 160 0 120C0 80 0 40 0 20L0 0Z" fill="#fa7268"></path><path d="M424 0L446.3 20C468.7 40 513.3 80 554 120C594.7 160 631.3 200 642.3 240C653.3 280 638.7 320 609.7 360C580.7 400 537.3 440 514.3 480C491.3 520 488.7 560 503.8 600C519 640 552 680 566.3 720C580.7 760 576.3 800 584.2 840C592 880 612 920 612 960C612 1000 592 1040 582 1060L572 1080L0 1080L0 1060C0 1040 0 1000 0 960C0 920 0 880 0 840C0 800 0 760 0 720C0 680 0 640 0 600C0 560 0 520 0 480C0 440 0 400 0 360C0 320 0 280 0 240C0 200 0 160 0 120C0 80 0 40 0 20L0 0Z" fill="#ef5f67"></path><path d="M361 0L368.3 20C375.7 40 390.3 80 394.3 120C398.3 160 391.7 200 382.3 240C373 280 361 320 362.5 360C364 400 379 440 373.7 480C368.3 520 342.7 560 363.3 600C384 640 451 680 457.8 720C464.7 760 411.3 800 406.2 840C401 880 444 920 440 960C436 1000 385 1040 359.5 1060L334 1080L0 1080L0 1060C0 1040 0 1000 0 960C0 920 0 880 0 840C0 800 0 760 0 720C0 680 0 640 0 600C0 560 0 520 0 480C0 440 0 400 0 360C0 320 0 280 0 240C0 200 0 160 0 120C0 80 0 40 0 20L0 0Z" fill="#e34c67"></path><path d="M308 0L292.3 20C276.7 40 245.3 80 252.3 120C259.3 160 304.7 200 329.7 240C354.7 280 359.3 320 352.5 360C345.7 400 327.3 440 324 480C320.7 520 332.3 560 335.8 600C339.3 640 334.7 680 310.3 720C286 760 242 800 238.7 840C235.3 880 272.7 920 272.8 960C273 1000 236 1040 217.5 1060L199 1080L0 1080L0 1060C0 1040 0 1000 0 960C0 920 0 880 0 840C0 800 0 760 0 720C0 680 0 640 0 600C0 560 0 520 0 480C0 440 0 400 0 360C0 320 0 280 0 240C0 200 0 160 0 120C0 80 0 40 0 20L0 0Z" fill="#d53867"></path><path d="M136 0L133 20C130 40 124 80 135 120C146 160 174 200 187.2 240C200.3 280 198.7 320 201.7 360C204.7 400 212.3 440 216.3 480C220.3 520 220.7 560 206.8 600C193 640 165 680 161.2 720C157.3 760 177.7 800 177.2 840C176.7 880 155.3 920 147.2 960C139 1000 144 1040 146.5 1060L149 1080L0 1080L0 1060C0 1040 0 1000 0 960C0 920 0 880 0 840C0 800 0 760 0 720C0 680 0 640 0 600C0 560 0 520 0 480C0 440 0 400 0 360C0 320 0 280 0 240C0 200 0 160 0 120C0 80 0 40 0 20L0 0Z" fill="#c62368"></path></svg>