<?xml version="1.0" encoding="UTF-8" standalone="no"?>
<svg
   width="388"
   height="426"
   viewBox="0 0 388 426"
   fill="none"
   version="1.1"
   id="svg249"
   sodipodi:docname="imagem_vetorizada.svg"
   inkscape:version="1.3.2 (091e20e, 2023-11-25, custom)"
   xmlns:inkscape="http://www.inkscape.org/namespaces/inkscape"
   xmlns:sodipodi="http://sodipodi.sourceforge.net/DTD/sodipodi-0.dtd"
   xmlns="http://www.w3.org/2000/svg"
   xmlns:svg="http://www.w3.org/2000/svg">
  <defs
     id="defs249">
    <inkscape:path-effect
       effect="fillet_chamfer"
       id="path-effect1"
       is_visible="true"
       lpeversion="1"
       nodesatellites_param="F,0,0,1,0,0,0,1 @ F,0,0,1,0,0,0,1 @ F,0,0,1,0,0,0,1 @ F,0,0,1,0,0,0,1 @ F,0,0,1,0,0,0,1 @ F,0,0,1,0,0,0,1 @ F,0,0,1,0,0,0,1 @ F,0,0,1,0,0,0,1 @ F,0,0,1,0,0,0,1 @ F,0,0,1,0,0,0,1 @ F,0,0,1,0,0,0,1 @ F,0,0,1,0,0,0,1 @ F,0,0,1,0,0,0,1 @ F,0,0,1,0,0,0,1 @ F,0,0,1,0,0,0,1 @ F,0,0,1,0,0,0,1 @ F,0,0,1,0,0,0,1 @ F,0,0,1,0,0,0,1 @ F,0,0,1,0,0,0,1 @ F,0,0,1,0,0,0,1 @ F,0,0,1,0,0,0,1 @ F,0,0,1,0,0,0,1 @ F,0,0,1,0,0,0,1 @ F,0,0,1,0,0,0,1 @ F,0,0,1,0,0,0,1 @ F,0,0,1,0,0,0,1 @ F,0,0,1,0,0,0,1 @ F,0,0,1,0,0,0,1 @ F,0,0,1,0,0,0,1 @ F,0,0,1,0,0,0,1 @ F,0,0,1,0,0,0,1 @ F,0,0,1,0,0,0,1 @ F,0,0,1,0,0,0,1 @ F,0,0,1,0,0,0,1 @ F,0,0,1,0,0,0,1 @ F,0,0,1,0,0,0,1 @ F,0,0,1,0,0,0,1 @ F,0,0,1,0,0,0,1 @ F,0,0,1,0,0,0,1 @ F,0,0,1,0,0,0,1 @ F,0,0,1,0,0,0,1 @ F,0,0,1,0,0,0,1 @ F,0,0,1,0,0,0,1 @ F,0,0,1,0,0,0,1 @ F,0,0,1,0,0,0,1 @ F,0,0,1,0,0,0,1 @ F,0,0,1,0,0,0,1 @ F,0,0,1,0,0,0,1 @ F,0,0,1,0,0,0,1 @ F,0,0,1,0,0,0,1 @ F,0,0,1,0,0,0,1 @ F,0,0,1,0,0,0,1 @ F,0,0,1,0,0,0,1 @ F,0,0,1,0,0,0,1 @ F,0,0,1,0,0,0,1 @ F,0,0,1,0,0,0,1 @ F,0,0,1,0,0,0,1 @ F,0,0,1,0,0,0,1 @ F,0,0,1,0,0,0,1 @ F,0,0,1,0,0,0,1 @ F,0,0,1,0,0,0,1 @ F,0,0,1,0,0,0,1 @ F,0,0,1,0,0,0,1 @ F,0,0,1,0,0,0,1 @ F,0,0,1,0,0,0,1 @ F,0,0,1,0,0,0,1 @ F,0,0,1,0,0,0,1 @ F,0,0,1,0,0,0,1 @ F,0,0,1,0,0,0,1 @ F,0,0,1,0,0,0,1 @ F,0,0,1,0,0,0,1 @ F,0,0,1,0,0,0,1 @ F,0,0,1,0,0,0,1 @ F,0,0,1,0,0,0,1 @ F,0,0,1,0,0,0,1 @ F,0,0,1,0,0,0,1 @ F,0,0,1,0,0,0,1 @ F,0,0,1,0,0,0,1 @ F,0,0,1,0,0,0,1 @ F,0,0,1,0,0,0,1 @ F,0,0,1,0,0,0,1 @ F,0,0,1,0,0,0,1 @ F,0,0,1,0,0,0,1 @ F,0,0,1,0,0,0,1 @ F,0,0,1,0,0,0,1 @ F,0,0,1,0,0,0,1 @ F,0,0,1,0,0,0,1 @ F,0,0,1,0,0,0,1 @ F,0,0,1,0,0,0,1 @ F,0,0,1,0,0,0,1 @ F,0,0,1,0,0,0,1 @ F,0,0,1,0,0,0,1 @ F,0,0,1,0,0,0,1 @ F,0,0,1,0,0,0,1 @ F,0,0,1,0,0,0,1 @ F,0,0,1,0,0,0,1 @ F,0,0,1,0,0,0,1 @ F,0,0,1,0,0,0,1 @ F,0,0,1,0,0,0,1 @ F,0,0,1,0,0,0,1 @ F,0,0,1,0,0,0,1 @ F,0,0,1,0,0,0,1 @ F,0,0,1,0,0,0,1 @ F,0,0,1,0,0,0,1 @ F,0,0,1,0,0,0,1 @ F,0,0,1,0,0,0,1 @ F,0,0,1,0,0,0,1 @ F,0,0,1,0,0,0,1 @ F,0,0,1,0,0,0,1 @ F,0,0,1,0,0,0,1 @ F,0,0,1,0,0,0,1 @ F,0,0,1,0,0,0,1 @ F,0,0,1,0,0,0,1 @ F,0,0,1,0,0,0,1 @ F,0,0,1,0,0,0,1 @ F,0,0,1,0,0,0,1"
       radius="0"
       unit="px"
       method="auto"
       mode="F"
       chamfer_steps="1"
       flexible="false"
       use_knot_distance="true"
       apply_no_radius="true"
       apply_with_radius="true"
       only_selected="false"
       hide_knots="false" />
    <inkscape:path-effect
       effect="fillet_chamfer"
       id="path-effect304"
       is_visible="true"
       lpeversion="1"
       nodesatellites_param="F,0,0,1,0,0,0,1 @ F,0,0,1,0,0,0,1 @ F,0,0,1,0,0,0,1 @ F,0,0,1,0,7.0664824,0,1 @ F,0,0,1,0,7.3719629,0,1 @ F,0,0,1,0,9.3664019,0,1 @ F,0,0,1,0,10.105967,0,1 @ F,0,0,1,0,8.9620077,0,1 @ F,0,0,1,0,9.7207939,0,1 @ F,0,0,1,0,5.4297904,0,1 @ F,0,0,1,0,4.0765826,0,1 @ F,0,0,1,0,0,0,1 @ F,0,0,1,0,3.5730901,0,1 @ F,0,0,1,0,0,0,1 @ F,0,0,1,0,5.2846367,0,1 @ F,0,0,1,0,6.9923471,0,1 @ F,0,0,1,0,6.9923471,0,1 @ F,0,0,1,0,11.02081,0,1 @ F,0,0,1,0,6.8386312,0,1 @ F,0,0,1,0,4.1741043,0,1 @ F,0,0,1,0,6.0336494,0,1 @ F,0,0,1,0,0,0,1"
       radius="0"
       unit="px"
       method="auto"
       mode="F"
       chamfer_steps="1"
       flexible="false"
       use_knot_distance="true"
       apply_no_radius="true"
       apply_with_radius="true"
       only_selected="false"
       hide_knots="false" />
    <inkscape:path-effect
       effect="fillet_chamfer"
       id="path-effect253"
       is_visible="true"
       lpeversion="1"
       nodesatellites_param="F,0,0,1,0,0,0,1 @ F,0,0,1,0,0,0,1 @ F,0,0,1,0,0,0,1 @ F,0,0,1,0,7.0664824,0,1 @ F,0,0,1,0,7.3719629,0,1 @ F,0,0,1,0,9.3664019,0,1 @ F,0,0,1,0,10.105967,0,1 @ F,0,0,1,0,8.9620077,0,1 @ F,0,0,1,0,9.7207939,0,1 @ F,0,0,1,0,5.4297904,0,1 @ F,0,0,1,0,4.0765826,0,1 @ F,0,0,1,0,0,0,1 @ F,0,0,1,0,3.5730901,0,1 @ F,0,0,1,0,0,0,1 @ F,0,0,1,0,5.2846367,0,1 @ F,0,0,1,0,6.9923471,0,1 @ F,0,0,1,0,6.9923471,0,1 @ F,0,0,1,0,11.02081,0,1 @ F,0,0,1,0,6.8386312,0,1 @ F,0,0,1,0,4.1741043,0,1 @ F,0,0,1,0,6.0336494,0,1 @ F,0,0,1,0,0,0,1"
       radius="0"
       unit="px"
       method="auto"
       mode="F"
       chamfer_steps="1"
       flexible="false"
       use_knot_distance="true"
       apply_no_radius="true"
       apply_with_radius="true"
       only_selected="false"
       hide_knots="false" />
  </defs>
  <sodipodi:namedview
     id="namedview249"
     pagecolor="#ffffff"
     bordercolor="#000000"
     borderopacity="0.25"
     inkscape:showpageshadow="2"
     inkscape:pageopacity="0.0"
     inkscape:pagecheckerboard="0"
     inkscape:deskcolor="#d1d1d1"
     showgrid="false"
     showguides="true"
     inkscape:zoom="1.1948357"
     inkscape:cx="188.72888"
     inkscape:cy="210.48919"
     inkscape:window-width="1366"
     inkscape:window-height="705"
     inkscape:window-x="-8"
     inkscape:window-y="-8"
     inkscape:window-maximized="1"
     inkscape:current-layer="g302" />
  <g
     id="g264"
     transform="translate(-8.3693517,-0.83693517)">
    <g
       id="g263">
      <g
         id="g262">
        <g
           id="g261"
           transform="translate(356.26512,-1.1836055)">
          <g
             id="g259">
            <path
               style="fill:#ff0000;fill-opacity:1"
               d="m -309.04871,328.69616 2.95901,1.66444 13.05664,0.44386 14.16627,0.25891 3.43986,2.92202 0.2959,19.01166 4.95634,1.18361 0.22193,-20.60213 4.40153,-2.88504 23.0803,-0.074 96.64875,-1.03566 29.88603,-26.964 -1.07264,120.80169 -11.28124,0.51783 -137.22421,-0.73975 -3.8837,-5.84405 -0.62879,-16.42252 -5.4002,1.10963 0.48084,18.38286 1.62745,3.55082 3.88371,3.69876 7.43452,1.70144 201.101886,-0.037 7.2126,-2.1083 3.69876,-5.73309 1.47951,-2.996 0.36988,-14.75807 -0.36988,-16.94035 -4.73442,-1.44252 -0.33289,9.94968 -0.96168,25.37354 -1.44252,2.33022 -4.25358,0.8877 -49.193576,0.2959 -1.03566,-5.47417 -0.18494,-113.07127 0.77675,-5.88104 22.562466,23.6721 6.21392,4.54948 8.3962,2.84805 7.43452,0.22193 5.4002,-0.2959 6.2879,1.40553 0.5918,6.80573 4.586475,-1.33156 -0.332895,-5.992 2.81107,-1.14662 18.23491,0.33289 5.54815,-0.70276 3.55082,-2.1083 0.44385,-4.10563 -1.84939,-4.03165 -12.46484,-12.68677 -12.5758,-12.42785 -3.14395,-2.92203 -4.99333,-1.10963 -0.99867,-0.92469 -20.56514,0.51783 -33.917676,-0.44385 -17.64312,-0.55482 -8.0633,1.07264 -53.22524,-0.22192 -16.90336,-0.14795 -62.50915,-0.81373 -9.06197,3.32889 -4.17961,3.92069 -8.32222,6.91669 -22.1926,18.90069 -0.96168,2.33023 z"
               id="path251"
               sodipodi:nodetypes="cccccccccccccccccccccccccccccccccccccccccccccccccccccccccccccccccccccc" />
            <path
               style="fill:#ff0000;fill-opacity:1"
               d="m 161.48812,347.75796 -16.94035,-1.25758 -9.09897,4.58647 -1.99807,1.85999 a 21.354596,21.354596 118.73977 0 0 -6.45153,11.76457 53.435254,53.435254 92.535697 0 0 -0.44709,10.09575 25.394677,25.394677 68.461928 0 0 3.99782,10.12931 20.126589,20.126589 36.835083 0 0 11.47693,8.59681 26.847114,26.847114 4.1767084 0 0 12.9343,0.94455 22.305103,22.305103 150.68899 0 0 12.24327,-6.87369 20.460579,20.460579 123.49825 0 0 5.38605,-8.13798 l 0.28842,-0.75769 a 54.862763,54.862763 106.58981 0 0 2.32147,-7.7923 l 0.19507,-0.89164 a 5.0877309,5.0877309 3.0528688 0 0 -5.54815,-0.2959 l -1.48845,5.75792 a 18.003147,18.003147 120.85296 0 1 -5.20087,8.70624 18.769348,18.769348 157.65928 0 1 -12.06024,4.95628 24.296708,24.296708 13.956963 0 1 -12.65999,-3.14639 16.619557,16.619557 64.935987 0 1 -6.55927,-14.02547 21.560389,21.560389 102.31758 0 1 2.48119,-11.36301 13.210385,13.210385 133.49285 0 1 5.07328,-5.34746 l 2.13484,-1.32215 a 16.769685,16.769685 168.01771 0 1 11.10732,-2.35734 l 8.22117,1.12706 z"
               id="path252"
               sodipodi:nodetypes="ccccccccccccccccccccccc"
               transform="translate(-337.54886,5.278379)"
               inkscape:original-d="m 161.48812,347.75796 -16.94035,-1.25758 -9.09897,4.58647 -7.17035,6.67483 -1.78066,9.67372 0.0665,9.02498 6.16534,13.11158 13.30196,5.66764 13.89992,-1.18578 10.72733,-9.51308 3.6703,-9.64217 1.0663,-4.87404 -2.36721,-1.92335 -3.18094,1.62745 -2.81107,10.87437 -8.95101,8.28524 -13.53223,0.50513 -11.62464,-6.44547 -1.54822,-16.17828 4.50416,-9.30512 10.81308,-6.69676 14.19891,1.94657 z"
               inkscape:path-effect="#path-effect253" />
            <path
               style="fill:#ff0000;fill-opacity:1"
               d="m -158.36614,350.01929 1.99733,4.43851 -31.51348,30.40386 -9.39487,-11.46617 0.51783,-3.03299 3.84672,0.36987 6.21392,6.13996 z"
               id="path253" />
            <rect
               style="fill:#ff0000;fill-opacity:1"
               id="rect254"
               width="35.21225"
               height="6.2139268"
               x="-99.126923"
               y="382.00854" />
            <rect
               style="fill:#ff0000;fill-opacity:1"
               id="rect254-8"
               width="27.518816"
               height="7.1016321"
               x="-99.805733"
               y="403.009"
               ry="0" />
            <rect
               style="fill:#ff0000;fill-opacity:1"
               id="rect254-8-5"
               width="31.365534"
               height="6.5098295"
               x="-99.509827"
               y="392.35654" />
            <path
               style="fill:#ff0000;fill-opacity:1"
               d="m -219.26283,141.88465 56.66509,-0.8877 5.32622,-1.92336 2.81106,-4.43852 1.03566,-5.17827 0.2959,-11.0963 2.07131,-6.06597 5.17827,-3.40287 6.50983,-0.5918 5.17827,2.21926 3.55081,5.03032 0.88771,3.69877 0.44385,8.72908 1.33156,3.55082 2.36721,2.07131 3.25491,0.8877 18.19793,0.14795 1.77541,1.18361 0.44385,3.10696 -3.84672,1.77541 -19.23358,-1.03566 -5.47417,-2.21926 -3.55082,-3.99466 -1.1836,-4.88237 -0.29591,-9.76475 -1.4795,-2.95901 -3.55082,-2.07131 -2.81106,0.2959 -3.40286,1.92336 -0.88771,3.10696 -0.44385,7.10164 -2.95901,13.4635 -8.13729,6.50983 -56.81304,0.73975 -4.43852,-0.73975 0.14795,-2.66311 z"
               id="path259" />
            <path
               d="m -324.82078,221.53123 c -0.305,3.238 -0.116,6.643 -1.129,9.642 -0.495,1.466 -3.175,2.966 -4.958,3.085 -5.785,0.386 -11.654,0.53 -17.402,-0.071 -2.055,-0.215 -3.859,-2.823 -5.657,-5.19 0.121,-3.794 0.121,-6.737 0.121,-9.726 4.759,0.458 8.861,1.135 12.969,1.172 4.275,0.039 8.554,-0.68 12.836,-0.75 1.063,-0.017 2.146,1.192 3.22,1.838 z"
               fill="#fafbfc"
               id="path80"
               transform="translate(178.13257,18.937681)" />
          </g>
          <g
             id="g260">
            <g
               id="g250"
               transform="translate(178.13257,18.937681)">
              <path
                 style="fill:#285094;fill-opacity:1"
                 d="m -267.78078,289.4688 -5.44009,-23.32957 0.94156,-4.60314 27.30501,-10.04323 17.26178,-5.02161 45.92682,-1.56925 c 0,0 1.34779,-7.57756 0.41847,-11.19401 -0.40486,-1.57552 -1.36386,-3.03111 -2.51081,-4.18467 -4.40233,-4.4277 -11.26499,-5.66685 -16.00638,-9.72938 -5.71319,-4.89519 -10.89535,-10.68095 -14.54175,-17.26178 -3.24973,-5.86495 -6.1724,-19.1449 -6.1724,-19.1449 l 0.10462,-0.52308 c 0,0 -5.42617,0.24087 -8.0555,-0.31385 -1.76146,-0.37162 -3.72871,-0.73502 -5.02161,-1.98772 -1.82843,-1.77159 -2.90039,-4.46692 -3.03389,-7.00933 -0.15904,-3.02892 0.79341,-6.34062 2.72004,-8.68321 1.1597,-1.41009 4.81237,-2.61542 4.81237,-2.61542 l 8.26474,0.10462 0.73232,-16.111 4.39391,0.83693 c 0,0 -0.90358,23.90766 0.83693,35.67436 0.78365,5.29784 1.90166,10.68952 4.2893,15.4833 3.27131,6.56795 8.05882,12.43043 13.39096,17.47103 2.88181,2.72424 6.26081,4.9754 9.83399,6.69548 6.70862,3.22943 13.92472,5.94185 21.34184,6.59086 6.96751,0.60967 14.09733,-0.68145 20.81877,-2.61542 4.76787,-1.37187 9.32168,-3.59502 13.49558,-6.27702 3.704,-2.38006 7.11442,-5.29127 10.04322,-8.57858 3.49363,-3.92128 6.5253,-8.33761 8.78782,-13.07711 1.88653,-3.95188 2.90685,-8.28237 3.87082,-12.55403 1.1171,-4.95025 1.82102,-10.00405 2.19696,-15.06483 0.74143,-9.98091 0.10461,-30.02505 0.10461,-30.02505 l 4.39391,-1.56926 0.6277,22.9111 8.997059,0.10462 c 0,0 4.204186,1.81779 5.54469,3.55698 1.5215,1.97402 2.251865,4.62211 2.301576,7.11394 0.03611,1.81032 -0.550524,3.66786 -1.464636,5.23085 -0.796717,1.36227 -1.920171,2.67501 -3.34774,3.34774 -3.644248,1.71733 -12.030949,1.15079 -12.030949,1.15079 0,0 -3.23152,12.01911 -5.75392,17.68025 -1.16363,2.6116 -2.67888,5.06538 -4.2893,7.4278 -1.7332,2.54252 -3.67028,4.95433 -5.75393,7.21857 -2.27184,2.46875 -4.65278,4.87371 -7.32318,6.90471 -3.53686,2.69 -7.51229,4.75857 -11.40324,6.90472 -1.09246,0.60258 -3.34774,1.67387 -3.34774,1.67387 l -1.36002,3.45236 v 10.88015 l 39.96365,0.6277 10.984779,3.13851 6.90471,5.02161 3.66159,4.18468 21.86493,-9.31091 5.64932,-1.15078 7.4278,3.66159 1.04617,2.61542 -0.62771,5.12623 -1.36002,4.49853 -15.90176,16.94793 6.904715,9.93861 -5.753935,-0.10462 -6.38163,-7.00933 -8.78782,7.53241 -7.32318,-0.10462 -2.510806,-0.31384 25.735756,-19.87721 11.50786,-12.65865 -0.94155,-3.55697 -5.02161,-1.67387 -10.56631,3.76621 0.52308,7.21856 -7.63703,-3.1385 -8.0555,4.91699 0.52308,7.63703 -8.36935,-2.61542 -7.53241,5.44008 1.04616,7.63703 -8.473959,-2.92927 -12.3448,9.62475 -8.6832,-0.31384 39.440569,-28.56042 -7.11395,-6.90471 -5.75393,-2.61543 -43.729859,-1.36002 -2.92927,5.02161 -4.60315,2.51081 -6.8001,1.46464 -15.69253,-0.6277 -5.5447,-2.72004 -6.69548,-6.06778 -48.64685,2.40618 6.38163,18.93566 2.40619,1.56926 10.5663,2.61542 7.21857,3.97544 5.23084,5.33546 1.88311,2.92928 0.73232,2.72003 -6.8001,-0.10461 -7.74165,-8.16012 -7.74165,-3.24312 -8.16012,-0.94156 -8.36935,1.56926 -5.96317,3.1385 -4.39391,3.97545 -2.82465,3.45235 -6.38163,-0.52308 3.66159,-5.02161 5.85854,-5.44008 7.11395,-4.28929 8.36936,-2.30157 -4.917,-15.16945 -3.24312,-1.36002 -27.09578,7.63703 -2.30157,1.98772 5.54469,24.1665 z"
                 id="path256"
                 transform="translate(-178.13257,-18.937681)"
                 sodipodi:nodetypes="ccccccaaaaccssssccccaaaaaaaaaaaccccaaaacaaaaacccccccccccccccccccccccccccccccccccccccccccccccccccccccccccccccccccccccc" />
              <path
                 d="m -225.68673,318.59754 c 9.349,-0.282 12.87,2.179 15.722,11.148 1.97,6.194 3.914,12.398 5.727,18.638 2.316,7.967 -0.659,13.986 -8.446,16.62 -3.911,1.323 -8.04,2.002 -12.862,2.941 -2.242,-0.429 -3.694,-0.826 -5.328,-1.487 -1.247,-1.305 -2.714,-2.157 -3.314,-3.42 -4.118,-8.672 -8.536,-17.252 -11.876,-26.227 -2.154,-5.788 1.859,-11.872 7.904,-14.231 2.452,-0.957 4.929,-1.845 7.778,-2.735 1.821,-0.397 3.258,-0.822 4.695,-1.247 z m 7.447,33.919 c -0.776,1.455 -1.189,3.543 -2.4,4.235 -2.656,1.517 -5.717,2.328 -8.829,3.509 4.18,4.506 8.298,1.81 12.25,0.675 8.815,-2.532 10.184,-5.583 6.621,-14.985 -1.691,-5.58 -3.205,-11.222 -5.126,-16.722 -1.695,-4.853 -4.911,-6.38 -9.833,-5.056 -3.376,0.907 -6.738,1.902 -10.031,3.069 -5.22,1.851 -6.482,5.015 -4.264,10.705 3.103,-1.114 6.16,-2.47 9.357,-3.243 1.434,-0.347 3.149,0.474 4.737,0.765 -0.943,1.291 -1.615,3.094 -2.886,3.768 -2.891,1.534 -6.076,2.513 -9.08,3.694 0.54,3.285 1.888,4.348 4.819,2.975 2.105,-0.986 4.319,-1.911 6.582,-2.324 1.5,-0.274 3.174,0.405 4.77,0.658 -1.076,1.361 -1.885,3.217 -3.288,3.979 -2.713,1.475 -5.761,2.333 -8.67,3.447 -0.11,0.52 -0.221,1.04 -0.331,1.56 1.412,0.504 2.948,1.628 4.21,1.377 2.392,-0.477 4.626,-1.743 7.439,-2.698 0.15,-0.083 0.3,-0.165 1.251,-0.239 0.795,0.067 1.591,0.135 2.702,0.851 z"
                 fill="#285092"
                 id="path5"
                 inkscape:transform-center-x="-45.194499"
                 inkscape:transform-center-y="0.41846758" />
              <path
                 d="m 212.50753,232.26466 c 4.129,-3.494 8.292,-4.216 12.631,-1.354 3.705,2.443 5.207,6.026 4.258,10.371 -0.947,4.336 -3.804,6.991 -8.171,7.668 -4.142,0.643 -7.567,-0.861 -9.856,-4.431 -2.668,-4.162 -2.182,-8.186 1.138,-12.254 z m 11.765,5.772 c -1.437,-3.293 -3.979,-4.856 -6.946,-2.573 -1.309,1.007 -1.779,3.985 -1.465,5.874 0.177,1.062 3.354,2.792 4.089,2.361 1.819,-1.066 3.011,-3.203 4.322,-5.662 z"
                 fill="#295093"
                 id="path11" />
              <path
                 d="m -501.66767,210.8424 c -6.739,-1 -9.87,-3.929 -10.238,-9.221 -0.317,-4.567 2.301,-8.601 6.54,-10.078 5.531,-1.927 11.402,1.2 12.889,6.864 1.58,6.02 -1.851,10.853 -9.191,12.435 z m -2.724,-5.84 c 3.195,1.271 5.872,0.489 6.635,-2.881 0.34,-1.5 -0.715,-4.172 -1.975,-4.941 -1.28,-0.782 -4.099,-0.532 -5.343,0.431 -2.491,1.927 -2.147,4.609 0.683,7.391 z"
                 fill="#264f90"
                 id="path12" />
              <path
                 d="m -245.60632,190.89471 c -0.211,1.448 -0.555,2.606 -0.294,3.606 0.916,3.508 -0.268,4.741 -3.784,3.998 -1.051,-0.222 -2.24,-0.435 -3.233,-0.165 -3.568,0.971 -4.7,-0.225 -3.875,-3.759 0.238,-1.019 -0.02,-2.153 -0.044,-3.234 -0.021,-0.96 -0.389,-2.523 0.021,-2.766 1.1,-0.653 3.236,-1.426 3.717,-0.935 2.181,2.23 7.989,-5.243 7.492,3.255 z m 53.78128,7.97471 c -0.211,1.448 -0.555,2.606 -0.294,3.606 0.916,3.508 -0.268,4.741 -3.784,3.998 -1.051,-0.222 -2.24,-0.435 -3.233,-0.165 -3.568,0.971 -4.7,-0.225 -3.875,-3.759 0.238,-1.019 -0.02,-2.153 -0.044,-3.234 -0.021,-0.96 -0.389,-2.523 0.021,-2.766 1.1,-0.653 3.236,-1.426 3.717,-0.935 2.181,2.23 7.989,-5.243 7.492,3.255 z"
                 fill="#ff0000"
                 id="path16" />
              <path
                 d="m 128.56553,83.951756 c -1.632,-6.9053 3.414,-2.6733 6.31,-3.2596 1.637,0.7932 2.5,1.5275 3.363,2.2619 -0.284,0.7033 -0.567,1.4067 -0.938,2.8309 -1.756,5.339 -5.029,2.2834 -7.554,2.7037 -0.463,-1.7792 -0.822,-3.1581 -1.181,-4.5369 z"
                 fill="#ff0000"
                 id="path17" />
              <path
                 d="m 128.50953,84.337056 c 0.415,0.9935 0.774,2.3724 1.237,4.1516 2.525,-0.4203 5.798,2.6353 7.519,-2.404 0.534,0.9414 1.016,2.3039 1.497,3.6665 -1.423,0.2185 -2.84,0.5029 -4.272,0.6242 -0.594,0.0504 -1.229,-0.406 -1.826,-0.3627 -6.1,0.4425 -6.182,0.3544 -4.155,-5.6756 z"
                 fill="#ff0000"
                 id="path22" />
              <path
                 d="m 138.53253,82.906456 c -1.157,-0.6868 -2.02,-1.4211 -3.275,-2.2004 1.021,-0.2712 2.434,-0.4976 3.848,-0.7239 -0.093,0.9589 -0.186,1.9178 -0.573,2.9243 z"
                 fill="#ff0000"
                 id="path26" />
              <path
                 d="m -447.84054,381.97885 c -1.6401,0.347 -3.2802,0.693 -5.2541,1.155 -5.3102,-1.153 -10.4484,-1.992 -15.2202,-3.799 -5.3815,-2.038 -8.3869,-7.958 -6.9107,-13.513 2.1783,-8.198 4.7165,-16.321 7.5553,-24.315 2.0986,-5.909 6.474,-8.074 14.2517,-7.532 2.3234,0.49 3.9631,0.812 5.8738,1.412 2.6437,1.067 5.0806,1.704 7.3764,2.674 6.0851,2.572 9.7407,9.341 7.0893,15.195 -4.4361,9.794 -9.7924,19.171 -14.7615,28.723 z m -12.2283,-14.468 c 1.6032,-0.214 3.2814,-0.827 4.7909,-0.543 1.9224,0.362 3.7753,1.323 5.5379,2.253 2.9843,1.575 4.2928,0.521 4.5831,-2.898 -3.2605,-1.423 -6.7027,-2.701 -9.8831,-4.455 -0.9104,-0.502 -1.0629,-2.378 -1.5629,-3.625 1.1456,-0.345 2.4597,-1.23 3.4053,-0.935 2.849,0.889 5.5034,2.397 8.3463,3.315 0.8924,0.288 2.1409,-0.527 3.2264,-0.838 -0.5426,-0.997 -0.8362,-2.447 -1.674,-2.908 -2.6179,-1.44 -5.5587,-2.308 -8.1243,-3.821 -0.9545,-0.563 -1.2173,-2.299 -1.7955,-3.5 1.2932,-0.343 2.783,-1.276 3.8438,-0.922 3.5724,1.192 6.9921,2.841 10.6483,4.39 2.1611,-4.545 0.9131,-7.974 -3.0919,-9.787 -4.062,-1.838 -8.4598,-3.05 -12.8174,-4.086 -3.8994,-0.928 -7.0649,0.749 -8.3493,4.583 -1.8446,5.506 -3.2581,11.156 -5.4042,17.309 -2.5324,7.793 -2.0907,11.07 1.8069,13.41 6.6078,3.966 13.1958,4.332 17.0472,0.665 -2.0196,-0.947 -4.0527,-1.656 -5.81,-2.791 -1.8412,-1.19 -3.4176,-2.789 -4.7235,-4.816 z"
                 fill="#285092"
                 id="path33" />
              <path
                 d="m -99.937573,151.54666 c -0.0344,6.822 -2.542097,10.496 -7.548197,11.545 -4.6539,0.975 -9.2119,-1.243 -11.2004,-5.452 -1.9275,-4.079 -0.6652,-9.226 2.976,-12.135 5.6135,-4.484 12.705,-1.927 15.772597,6.042 z m -6.832797,5.492 c 2.5704,-4.079 1.8598,-7.576 -1.863,-7.977 -1.5186,-0.163 -3.7893,0.647 -4.6191,1.803 -0.8162,1.137 -0.9319,4.143 -0.1263,4.784 1.5056,1.196 3.9003,1.275 6.6084,1.39 z"
                 fill="#285094"
                 id="path39" />
              <path
                 d="m -165.70359,250.63314 c 0.5614,5.412 -1.3806,9.089 -6.0832,11.196 -3.99982,1.792 -7.5936,0.816 -10.57675,-2.044 -3.18028,-3.048 -4.02106,-6.892 -2.26755,-11.003 1.74342,-4.087 5.05941,-6.232 9.4589,-6.082 4.877,0.167 7.9803,2.931 9.4686,7.933 z m -11.08711,-2.558 c -0.99416,2.026 -2.41935,3.982 -2.76698,6.114 -0.13602,0.834 2.19259,2.959 3.31661,2.901 1.69198,-0.087 3.88318,-1.177 4.84278,-2.552 1.9664,-2.817 -0.0327,-5.447 -5.39241,-6.463 z"
                 fill="#285094"
                 id="path40" />
              <path
                 d="m -496.52615,244.69217 c -1.3772,-3.899 -0.5766,-5.632 3.5243,-4.632 0.8897,0.217 1.9022,0.26 2.7953,0.077 4.6136,-0.945 5.206,-0.319 4.0891,4.148 -0.2505,1.002 0.0664,2.175 0.2418,3.249 0.4746,2.908 -0.6439,4.156 -3.5878,3.546 -0.7989,-0.165 -1.5831,-0.697 -2.3538,-0.658 -6.0762,0.308 -6.0747,0.338 -4.7089,-5.73 z"
                 fill="#ff0000"
                 id="path45" />
              <path
                 d="m -345.82193,23.521457 c 0.032,-0.3903 0.194,-0.6023 0.457,-0.9177 1.282,-2.0392 2.3,-3.7631 3.319,-5.487 0,0 0.273,-0.2568 0.602,-0.5962 1.422,-1.6966 2.515,-3.0537 3.598,-4.416 -0.01,-0.0051 -0.002,0.0197 -0.002,0.0197 5.616,-3.1352004 10.968,-6.9580404 16.911,-9.2431804 8.749,-3.36400002 17.729,-2.00160002 26.909,1.33433 0.503,0.10377 0.747,0.01103 0.979,0.27738 1.265,0.74954 2.299,1.23277 3.418,1.79107 0.084,0.0751 0.293,-0.0109 0.482,0.2861 1.548,1.1891 2.908,2.0813 4.289,3.1572 0.022,0.1838 0.102,0.5451004 0.207,0.7385004 0.292,0.4258 0.518,0.6112 0.823,1.1263 0.347,4.6974 3.585,6.1942 7.137,7.6199 0.177,0.0614 0.54,0.1562 0.54,0.1562 0.176,0.4102 0.353,0.8204 0.778,1.8298 5.382,9.8749 5.88,19.7395 3.973,29.9096 -0.08,0.1748 -0.161,0.3496 -0.475,1.0814 -0.804,2.3528 -1.375,4.1487 -1.945,5.9445 0,0 0.06,0.0821 -0.239,0.205 -0.828,1.337 -1.356,2.5511 -1.884,3.7651 0,0 0.106,-0.0062 -0.222,0.0742 -1.482,1.7081 -2.637,3.3357 -3.792,4.9633 -0.306,0.0683 -0.537,0.2391 -0.755,0.7225 -3.635,4.1987 -6.923,3.0913 -11.587,1.2057 -7.4,-2.9911 -15.483,-4.7559 -23.438,-5.7691 -7.365,-0.9379 -14.953,-0.4493 -22.422,-0.1239 -4.516,0.1967 -6.357,-1.9709 -7.854,-5.7774 -4.419,-11.2398 -4.427,-22.3462 0.193,-33.8773 z"
                 fill="#fefcfd"
                 id="path70" />
              <path
                 d="m -274.54514,147.84731 c 2.00166,0.70063 6.98745,-0.21363 6.37006,6.17586 2.00203,5.75094 -8.94632,7.7315 -12.24409,4.97416 -2.13824,-11.2519 0.5881,-10.20993 5.87403,-11.15002 z"
                 fill="#dde8f5"
                 id="path82"
                 sodipodi:nodetypes="cccc" />
              <path
                 d="m -313.39966,271.62882 c -1.06,-6.42 -1.965,-12.742 -2.959,-19.689 -0.514,0.202 -1.87,0.319 -2.466,1.053 -1.194,1.471 -1.972,3.279 -2.922,4.948 -1.148,-1.749 -2.296,-3.497 -3.815,-5.81 h -3.253 c -0.161,1.021 -0.091,2.076 -0.512,2.87 -0.563,1.063 -1.508,1.923 -2.288,2.871 -0.896,-0.99 -1.865,-1.925 -2.664,-2.988 -0.691,-0.919 -1.188,-1.984 -1.77,-2.984 -0.694,1.024 -1.316,2.108 -2.102,3.056 -0.848,1.023 -1.85,1.918 -2.784,2.869 -0.776,-0.937 -1.6,-1.837 -2.313,-2.819 -0.746,-1.027 -1.385,-2.132 -2.071,-3.203 -0.694,1.046 -1.327,2.139 -2.098,3.125 -0.825,1.056 -1.779,2.01 -2.676,3.009 -0.907,-1.018 -2.002,-1.929 -2.653,-3.09 -0.427,-0.762 -0.211,-1.884 -0.283,-2.845 -0.477,-0.252 -0.955,-0.503 -1.433,-0.755 -0.834,1.16 -1.66,2.325 -2.503,3.478 -0.787,1.074 -1.593,2.135 -2.391,3.202 -0.915,-1.141 -1.95,-2.209 -2.711,-3.445 -0.675,-1.097 -1.047,-2.382 -1.725,-3.994 -1.969,7.447 -3.679,13.914 -5.421,20.719 -0.183,0.423 -0.335,0.506 -1.084,0.647 -1.784,-0.253 -2.971,-0.565 -4.158,-0.877 0.79,-2.528 1.894,-5.006 2.295,-7.594 0.622,-4.017 1.124,-8.119 1.003,-12.165 -0.106,-3.52 0.596,-5.416 4.51,-5.349 17.661,0.302 35.327,0.424 52.984,0.902 1.494,0.041 4.381,2.854 4.173,3.346 -2.932,6.948 2.04678,13.60993 1.71578,20.69993 -1.307,0.713 -3.25478,0.80007 -4.88078,1.14807 -0.345,0.038 -0.589,-0.238 -0.745,-0.336 z"
                 fill="#285092"
                 id="path95"
                 sodipodi:nodetypes="cccccccccccccccccccccccccccccccccc" />
              <path
                 d="m 224.33853,238.41266 c -1.378,2.083 -2.569,4.22 -4.388,5.286 -0.735,0.431 -3.912,-1.3 -4.089,-2.361 -0.315,-1.889 0.156,-4.867 1.464,-5.874 2.968,-2.283 5.51,-0.72 7.013,2.949 z"
                 fill="#dde8f5"
                 id="path151" />
              <path
                 d="m -0.88670548,214.81262 c -2.50000002,-2.549 -2.84400002,-5.231 -0.35300002,-7.158 1.24400002,-0.963 4.063,-1.213 5.343,-0.431 1.26,0.769 2.315,3.441 1.976,4.941 -0.763,3.37 -3.441,4.152 -6.96599998,2.648 z"
                 fill="#e1eaf5"
                 id="path152" />
              <path
                 d="m -399.87878,158.27717 c -3.673,0.581 -7.457,1.752 -9.505,-2.203 -0.638,-1.233 -0.684,-4.066 -0.01,-4.457 2.743,-1.59 5.87,-2.517 9.792,-4.055 0,4.548 0,7.466 -0.277,10.715 z"
                 fill="#e1eaf5"
                 id="path166" />
              <path
                 d="m -400.28728,159.45733 c -4.19608,0.99947 -7.92777,1.28122 -9.97577,-2.67378 -1.99802,-2.43609 -0.33579,-9.58812 1.5413,-8.35756 -3.77904,0.66307 6.26883,-3.74395 9.28687,-0.72983 1.04617,4.86185 1.20309,9.97681 -0.8524,11.76117 z"
                 fill="#e1eaf5"
                 id="path166-7"
                 sodipodi:nodetypes="ccccc" />
              <path
                 d="m -107.11207,157.25266 c -2.3664,-0.329 -4.7612,-0.408 -6.2667,-1.604 -0.8056,-0.641 -0.69,-3.647 0.1263,-4.784 0.8297,-1.156 3.1004,-1.966 4.619,-1.803 3.7228,0.401 4.4335,3.898 1.5214,8.191 z"
                 fill="#e1eaf5"
                 id="path182" />
              <path
                 d="m -148.29326,252.43266 c 4.97279,1.097 6.97199,3.727 5.00549,6.544 -0.9595,1.375 -3.1508,2.465 -4.84271,2.552 -1.12403,0.058 -3.45264,-2.067 -3.31662,-2.901 0.34763,-2.132 1.77283,-4.088 3.15384,-6.195 z"
                 fill="#e1eaf5"
                 id="path183" />
              <path
                 d="m -321.55634,175.08495 c 1.728,5.016 10e-4,9.078 -2.998,12.656 -6.874,8.204 -24.982,8.512 -32.269,0.629 -3.372,-3.648 -4.628,-7.968 -4.019,-13.477 13.002,0 25.95,0 39.286,0.192 z m -20.542,13.262 c 10.704,-0.034 13.897,-1.735 14.993,-7.847 -9.284,0 -18.592,0 -28.316,0 2.452,6.08 6.733,8.087 13.323,7.847 z"
                 fill="#264f90"
                 id="path201-9" />
              <path
                 d="m -322.56901,151.82471 c -1.202,1.26 -2.0506,3.44467 -3.41,3.041 -1.45661,-0.43254 -1.786,-2.831 -1.696,-4.181 0.362,-5.481 6.026,-10.228 11.74,-10.214 5.661,0.015 11.327,4.92 11.561,10.384 0.057,1.328 -0.37061,3.73461 -1.837,4.07 -1.41056,0.32262 -2.758,-1.741 -3.126,-2.925 -1.04,-3.345 -2.613,-5.78 -6.4,-5.934 -3.756,-0.153 -5.832,1.914 -6.832,5.759 z"
                 fill="#305592"
                 id="path202"
                 sodipodi:nodetypes="cscccsccc" />
              <path
                 d="m -374.92546,152.3692 c -1.202,1.26 -2.0506,3.44467 -3.41,3.041 -1.45661,-0.43254 -1.786,-2.831 -1.696,-4.181 0.362,-5.481 6.026,-10.228 11.74,-10.214 5.661,0.015 11.327,4.92 11.561,10.384 0.057,1.328 -0.37061,3.73461 -1.837,4.07 -1.41056,0.32262 -2.758,-1.741 -3.126,-2.925 -1.04,-3.345 -2.613,-5.78 -6.4,-5.934 -3.756,-0.153 -5.832,1.914 -6.832,5.759 z"
                 fill="#305592"
                 id="path202-7"
                 sodipodi:nodetypes="cscccsccc" />
              <path
                 d="m -342.66607,160.05856 c 2.213,3.092 3.878,3.159 5.57,-0.184 0.572,-1.129 2.14118,-3.08151 3.462,-2.504 1.47227,0.64373 1.559,3.214 1.265,4.591 -0.836,3.916 -3.864,5.832 -7.678,5.818 -3.853,-0.013 -6.739,-2.083 -7.539,-5.986 -0.271,-1.322 -0.2453,-3.76109 1.151,-4.367 1.32013,-0.57286 2.46,1.494 3.769,2.632 z"
                 fill="#305592"
                 id="path204-2"
                 sodipodi:nodetypes="ccsccssc" />
              <path
                 style="fill:#ff0000;fill-opacity:1"
                 d="m -395.10801,176.48668 2.51081,6.48625 c 0,0 -3.36862,-1.12321 -5.02162,-1.77849 -2.94148,-1.16605 -5.04039,-2.51668 -7.32318,-4.70776 -2.0097,-1.92896 -3.66479,-3.90322 -4.70776,-6.48624 -1.08613,-2.6899 -2.40619,-8.57859 -2.40619,-8.57859 0,0 4.87916,0.15591 5.23085,1.98772 0.40318,2.1 1.28944,4.33432 2.40619,6.27701 1.02597,1.78477 2.19756,3.61312 3.87082,4.81238 1.56919,1.12468 5.44008,1.98772 5.44008,1.98772 z"
                 id="path257"
                 sodipodi:nodetypes="ccssscsssc" />
              <path
                 style="fill:#ff0000;fill-opacity:1"
                 d="m -270.73487,163.29327 c 0,0 4.49768,-1.18571 5.08072,-2.14093 1.06558,-1.74578 0.0731,2.99874 -0.58219,4.65174 -1.16605,2.94148 -2.20282,5.45886 -4.39391,7.74165 -1.92896,2.0097 -4.21707,3.45555 -6.80009,4.49852 -2.6899,1.08613 -7.70358,2.27094 -7.70358,2.27094 0,0 1.22305,-4.76871 1.98772,-5.52676 1.21747,-1.20692 3.66854,-1.06751 5.61123,-2.18426 1.78477,-1.02597 3.61312,-2.19756 4.81238,-3.87082 1.12468,-1.56919 1.98772,-5.44008 1.98772,-5.44008 z"
                 id="path257-3"
                 sodipodi:nodetypes="csssscsssc" />
              <path
                 style="fill:#ff0000;fill-opacity:1"
                 d="m -407.34819,143.63698 -4.81237,2.61542 c 0,0 -0.67576,-11.04839 -0.73233,-18.83104 -0.0393,-5.40686 -0.1238,-15.38636 0.20924,-22.28339 0.2144,-4.44019 0.42819,-7.859709 1.15079,-11.717103 0.45334,-2.420047 2.59404,-8.823357 3.66159,-10.461691 1.76643,-2.71089 3.05498,-5.054054 4.18467,-6.69548 1.73993,-2.52808 4.49853,-5.75393 4.49853,-5.75393 0,0 -11.37861,-1.868655 -15.27407,-5.649313 -1.26862,-1.23123 -1.98772,-4.916994 -1.98772,-4.916994 0,0 2.84393,-0.853706 4.2893,-0.732319 4.41803,0.371042 12.55402,4.39391 12.55402,4.39391 l 8.0555,-0.313851 -10.98477,-8.473968 c 0,0 -3.76805,-5.596618 -1.8831,-7.218566 1.40918,-1.21256 3.52573,1.251169 5.12622,2.196955 3.46519,2.0477 9.52014,7.427799 9.52014,7.427799 l -0.31385,-9.938605 c 0,0 0.11874,-13.201173 2.40619,-19.249509 1.26939,-3.35644 3.66742,-6.224979 6.06778,-8.892436 2.23411,-2.482707 3.79565,-4.021945 7.63703,-6.486247 2.29714,-1.473649 7.7932,-4.8185179 10.35708,-5.75393 2.66184,-0.9711517 5.7801,-0.6256744 8.26473,-1.987721 2.33564,-1.280377 3.7692,-3.7683375 5.75393,-5.54469475 2.19583,-1.96528855 5.69267,-4.82444405 6.8001,-5.64931325 3.59131,-2.6749925 7.61768,-4.839146 11.82171,-6.38163 4.11578,-1.510107 8.49771,-2.371141 12.86788,-2.72004 3.54995,-0.283416 7.16615,-0.108609 10.67092,0.523085 3.8531,0.694475 7.64874,1.895731 11.19401,3.556974 3.63525,1.7034084 7.16731,3.7968004 10.14784,6.486248 3.53797,3.192453 6.38551,7.1413094 8.89243,11.194008 2.12567,3.4363634 3.78717,7.172429 5.12623,10.984774 0.92777,2.641376 1.6673,5.378941 1.98772,8.160118 0.41911,3.637694 0.43351,7.362774 -0.10462,10.984774 -0.49137,3.307258 -1.53715,6.539021 -2.82465,9.624754 -1.30426,3.12592 -3.00472,6.096783 -4.917,8.892437 -1.53768,2.24802 -3.57883,4.111617 -5.23084,6.277013 -0.85082,1.115224 -2.40619,3.452358 -2.40619,3.452358 0,0 4.9542,1.657354 7.53242,1.8831 2.47261,0.216498 4.97896,-0.118297 7.4278,-0.52308 1.35192,-0.223467 3.97544,-1.04617 3.97544,-1.04617 0,0 2.57565,-1.183132 3.24312,0.104617 0.78239,1.509464 -0.6743,3.846739 -2.19695,4.603143 -3.71414,1.845063 -12.44941,3.55698 -12.44941,3.55698 0,0 3.83004,6.859185 6.59086,12.867874 1.10773,2.41087 3.6857,10.217813 3.97544,12.972497 0.7443,7.076283 0.42283,14.226533 0.41847,21.341853 -0.005,8.37116 -0.52308,25.10805 -0.52308,25.10805 0,0 -5.4985,-0.30816 -5.12623,-2.19695 1.77536,-9.00767 0.76643,-8.8606 1.2554,-27.51425 0.224,-8.54538 -1.20544,-15.49718 -1.8831,-18.935659 -0.66136,-3.355783 -3.55698,-10.043224 -3.55698,-10.043224 0,0 -1.34174,-2.914625 -2.30157,-4.184671 -4.87657,-6.452649 -8.78343,-12.787186 -17.26178,-17.052558 -4.61052,-2.319504 -10.15586,-5.121732 -16.11101,-6.277013 -8.17363,-1.585659 -17.24066,-1.890953 -27.61886,-2.406189 -8.58847,-0.426383 -15.74432,0.05205 -28.76965,1.883104 -2.77382,0.389934 -12.49007,3.790214 -15.37868,5.335461 -2.4416,1.306121 -5.71081,3.752106 -8.0555,5.753925 -1.93241,1.649832 -4.05676,4.364381 -5.75393,6.590867 -2.45757,3.224039 -5.05267,6.937441 -6.8001,11.194012 -1.44104,3.510238 -2.982,8.064751 -3.45236,12.972505 -0.80855,8.43645 -0.58048,18.55196 -0.52308,26.57268 0.0444,6.20721 1.56925,16.32024 1.56925,16.32024 z"
                 id="path258"
                 sodipodi:nodetypes="ccssssscscscccssccssssssssssssssssssscsscsscssscssscsssssssssssc" />
            </g>
          </g>
          <ellipse
             style="fill:#ffffff;fill-opacity:0"
             id="path2"
             cx="-274.80817"
             cy="54.690968"
             rx="36.395855"
             ry="30.773731" />
        </g>
      </g>
    </g>
  </g>
  <g
     id="g303"
     transform="translate(-8.3693517,-0.83693517)">
    <g
       id="g302">
      <g
         id="g301">
        <g
           id="g300"
           transform="translate(356.26512,-1.1836055)">
          <g
             id="g271">
            <path
               style="fill:#ff0000;fill-opacity:1"
               d="m -309.04871,328.69616 2.95901,1.66444 13.05664,0.44386 14.16627,0.25891 3.43986,2.92202 0.2959,19.01166 4.95634,1.18361 0.22193,-20.60213 4.40153,-2.88504 23.0803,-0.074 96.64875,-1.03566 29.88603,-26.964 -1.07264,120.80169 -11.28124,0.51783 -137.22421,-0.73975 -3.8837,-5.84405 -0.62879,-16.42252 -5.4002,1.10963 0.48084,18.38286 1.62745,3.55082 3.88371,3.69876 7.43452,1.70144 201.101886,-0.037 7.2126,-2.1083 3.69876,-5.73309 1.47951,-2.996 0.36988,-14.75807 -0.36988,-16.94035 -4.73442,-1.44252 -0.33289,9.94968 -0.96168,25.37354 -1.44252,2.33022 -4.25358,0.8877 -49.193576,0.2959 -1.03566,-5.47417 -0.18494,-113.07127 0.77675,-5.88104 22.562466,23.6721 6.21392,4.54948 8.3962,2.84805 7.43452,0.22193 5.4002,-0.2959 6.2879,1.40553 0.5918,6.80573 4.586475,-1.33156 -0.332895,-5.992 2.81107,-1.14662 18.23491,0.33289 5.54815,-0.70276 3.55082,-2.1083 0.44385,-4.10563 -1.84939,-4.03165 -12.46484,-12.68677 -12.5758,-12.42785 -3.14395,-2.92203 -4.99333,-1.10963 -0.99867,-0.92469 -20.56514,0.51783 -33.917676,-0.44385 -17.64312,-0.55482 -8.0633,1.07264 -53.22524,-0.22192 -16.90336,-0.14795 -62.50915,-0.81373 -9.06197,3.32889 -4.17961,3.92069 -8.32222,6.91669 -22.1926,18.90069 -0.96168,2.33023 z"
               id="path266"
               sodipodi:nodetypes="cccccccccccccccccccccccccccccccccccccccccccccccccccccccccccccccccccccc" />
            <path
               style="fill:#ff0000;fill-opacity:1"
               d="m 161.48812,347.75796 -16.94035,-1.25758 -9.09897,4.58647 -1.99807,1.85999 a 21.354596,21.354596 118.73977 0 0 -6.45153,11.76457 53.435254,53.435254 92.535697 0 0 -0.44709,10.09575 25.394677,25.394677 68.461928 0 0 3.99782,10.12931 20.126589,20.126589 36.835083 0 0 11.47693,8.59681 26.847114,26.847114 4.1767084 0 0 12.9343,0.94455 22.305103,22.305103 150.68899 0 0 12.24327,-6.87369 20.460579,20.460579 123.49825 0 0 5.38605,-8.13798 l 0.28842,-0.75769 a 54.862763,54.862763 106.58981 0 0 2.32147,-7.7923 l 0.19507,-0.89164 a 5.0877309,5.0877309 3.0528688 0 0 -5.54815,-0.2959 l -1.48845,5.75792 a 18.003147,18.003147 120.85296 0 1 -5.20087,8.70624 18.769348,18.769348 157.65928 0 1 -12.06024,4.95628 24.296708,24.296708 13.956963 0 1 -12.65999,-3.14639 16.619557,16.619557 64.935987 0 1 -6.55927,-14.02547 21.560389,21.560389 102.31758 0 1 2.48119,-11.36301 13.210385,13.210385 133.49285 0 1 5.07328,-5.34746 l 2.13484,-1.32215 a 16.769685,16.769685 168.01771 0 1 11.10732,-2.35734 l 8.22117,1.12706 z"
               id="path267"
               sodipodi:nodetypes="ccccccccccccccccccccccc"
               transform="translate(-337.54886,5.278379)"
               inkscape:original-d="m 161.48812,347.75796 -16.94035,-1.25758 -9.09897,4.58647 -7.17035,6.67483 -1.78066,9.67372 0.0665,9.02498 6.16534,13.11158 13.30196,5.66764 13.89992,-1.18578 10.72733,-9.51308 3.6703,-9.64217 1.0663,-4.87404 -2.36721,-1.92335 -3.18094,1.62745 -2.81107,10.87437 -8.95101,8.28524 -13.53223,0.50513 -11.62464,-6.44547 -1.54822,-16.17828 4.50416,-9.30512 10.81308,-6.69676 14.19891,1.94657 z"
               inkscape:path-effect="#path-effect304" />
            <path
               style="fill:#ff0000;fill-opacity:1"
               d="m -158.36614,350.01929 1.99733,4.43851 -31.51348,30.40386 -9.39487,-11.46617 0.51783,-3.03299 3.84672,0.36987 6.21392,6.13996 z"
               id="path268" />
            <rect
               style="fill:#ff0000;fill-opacity:1"
               id="rect268"
               width="35.21225"
               height="6.2139268"
               x="-99.126923"
               y="382.00854" />
            <rect
               style="fill:#ff0000;fill-opacity:1"
               id="rect269"
               width="27.518816"
               height="7.1016321"
               x="-99.805733"
               y="403.009"
               ry="0" />
            <rect
               style="fill:#ff0000;fill-opacity:1"
               id="rect270"
               width="31.365534"
               height="6.5098295"
               x="-99.509827"
               y="392.35654" />
            <path
               style="fill:#ffffff;fill-opacity:1"
               d="m -173.01733,30.563753 c 0.032,-0.3903 0.194,-0.6023 0.457,-0.9177 1.282,-2.0392 2.3,-3.7631 3.319,-5.487 0,0 0.273,-0.2568 0.602,-0.5962 1.422,-1.6966 2.515,-3.0537 3.598,-4.416 -0.01,-0.0051 -0.002,0.0197 -0.002,0.0197 5.616,-3.135199 10.968,-6.958039 16.911,-9.2431793 8.74899,-3.364 17.72899,-2.0016 26.90899,1.3343303 0.503,0.10377 0.747,0.01103 0.979,0.27738 1.265,0.74954 2.299,1.23277 3.418,1.79107 0.084,0.0751 0.293,-0.0109 0.482,0.2861 1.548,1.1891 7.17744,4.601513 9.76317,7.89162 4.70761,5.990011 8.269539,9.703283 9.759239,20.667211 0.938917,6.910267 0.874654,9.522539 -0.622951,15.580562 -3.023258,8.270825 -3.002458,5.628206 -3.572458,7.424002 0,0 0.06,0.0821 -0.239,0.205 -0.828,1.337 -1.356,2.5511 -1.884,3.7651 0,0 0.106,-0.006 -0.222,0.0742 -1.482,1.7081 -2.637,3.3357 -3.792,4.9633 -0.306,0.0683 -0.537,0.2391 -0.755,0.7225 -3.635,4.1987 -6.923,3.0913 -11.587,1.20569 -7.4,-2.9911 -15.483,-4.7559 -23.438,-5.76909 -7.36499,-0.9379 -14.95299,-0.4493 -22.42199,-0.12391 -4.516,0.19671 -6.357,-1.9709 -7.854,-5.7774 -4.419,-11.239796 -4.427,-22.346196 0.193,-33.877296 z"
               id="path270"
               sodipodi:nodetypes="cccccccccccasccccccccccccc" />
            <path
               d="m -182.4187,29.229134 c 0.385,0.2602 2.39846,1.556154 2.97846,2.107454 -0.04,0.9973 -0.275,1.7036 -0.43,2.8573 0.08,0.4475 -0.044,0.2933 -0.044,0.2933 -4.596,10.6568 -3.515,21.2479 0.393,31.7961 0.556,1.5004 1.231,2.9567 1.637,3.9235 -8.105,1.9326 -15.872,3.7847 -23.879,5.888 -0.239,0.2513 -0.221,0.3136 -0.548,0.3196 -1.342,-0.3877 -2.358,-0.7814 -3.373,-1.1751 0,0 0.075,-0.245 -0.004,-0.6668 -0.397,-0.9401 -0.715,-1.4583 -1.032,-1.9765 0,0 -0.038,0.081 0.021,-0.3599 0.39,-7.4575 -2.38696,-10.183732 1.05,-21.491 0,0 -1.61457,6.033773 -0.6807,2.20771 0.85121,-3.48745 4.00458,-8.573656 6.0757,-11.15421 1.65916,-2.067258 3.84992,-3.866849 5.691,-5.823 0,0 0.025,0.0471 0.237,0.0653 0.211,0.0181 0.54101,-0.142308 0.881,-0.2826 4.47446,-1.84633 6.92654,-4.728754 11.02654,-6.529154 z"
               fill="#fcf5f9"
               id="path134"
               sodipodi:nodetypes="cccccccccccccsscssc" />
            <path
               d="m -323.98384,222.05431 c 0.10858,3.39964 -0.95294,6.11992 -1.96594,9.11892 -0.495,1.466 -3.175,2.96602 -4.958,3.085 -5.785,0.38602 -11.65401,0.5301 -17.402,-0.071 -2.05501,-0.2149 -4.87631,-2.3219 -5.657,-5.19 -0.99696,-3.66267 0.43485,-10.08474 0.43485,-13.07374 4.759,0.458 9.69794,0.82091 13.80594,0.85815 4.275,0.0388 10.01863,-0.57538 14.30063,-0.64538 1.063,-0.017 1.4015,4.66538 1.44152,5.91805 z"
               fill="#fafbfc"
               id="path271"
               transform="translate(178.13257,18.937681)"
               sodipodi:nodetypes="scssscscs" />
          </g>
        </g>
      </g>
      <path
         d="m 41.370243,82.992777 c -1.3772,-3.899 -0.5766,-5.632 3.5243,-4.632 0.8897,0.217 1.9022,0.26 2.7953,0.077 4.6136,-0.945 5.206,-0.319 4.0891,4.148 -0.2505,1.002 0.0664,2.175 0.2418,3.249 0.4746,2.908 -0.6439,4.156 -3.5878,3.546 -0.7989,-0.165 -1.5831,-0.697 -2.3538,-0.658 -6.0762,0.308 -6.0747,0.338 -4.7089,-5.73 z"
         fill="#ff0000"
         id="path45-2" />
      <path
         d="m 329.42657,216.88944 c -2.5,-2.549 -2.844,-5.231 -0.353,-7.158 1.244,-0.963 4.063,-1.213 5.343,-0.431 1.26,0.769 2.315,3.441 1.976,4.941 -0.763,3.37 -3.441,4.152 -6.966,2.648 z"
         fill="#e1eaf5"
         id="path152-7" />
      <path
         d="m 339.52519,134.17535 c -6.739,-1 -9.87,-3.929 -10.238,-9.221 -0.317,-4.567 2.301,-8.601 6.54,-10.078 5.531,-1.927 11.402,1.2 12.889,6.864 1.58,6.02 -1.851,10.853 -9.191,12.435 z m -2.724,-5.84 c 3.195,1.271 5.872,0.489 6.635,-2.881 0.34,-1.5 -0.715,-4.172 -1.975,-4.941 -1.28,-0.782 -4.099,-0.532 -5.343,0.431 -2.491,1.927 -2.147,4.609 0.683,7.391 z"
         fill="#264f90"
         id="path12-7" />
      <path
         d="m 33.782557,367.13605 c -6.739,-1 -9.87,-3.929 -10.238,-9.221 -0.317,-4.567 2.301,-8.601 6.54,-10.078 5.531,-1.927 11.402,1.2 12.889,6.864 1.58,6.02 -1.851,10.853 -9.191,12.435 z m -2.724,-5.84 c 3.195,1.271 5.872,0.489 6.635,-2.881 0.34,-1.5 -0.715,-4.172 -1.975,-4.941 -1.28,-0.782 -4.099,-0.532 -5.343,0.431 -2.491,1.927 -2.147,4.609 0.683,7.391 z"
         fill="#264f90"
         id="path12-9" />
    </g>
    <g
       inkscape:groupmode="layer"
       id="layer1"
       inkscape:label="camada brancos"
       transform="translate(8.3693517,0.83693517)" />
  </g>
  <g
     inkscape:groupmode="layer"
     id="layer2"
     inkscape:label="aaa">
    <ellipse
       style="fill:#ffffff;fill-opacity:0"
       id="path1"
       cx="226.39096"
       cy="42.683693"
       rx="28.874262"
       ry="30.9666" />
  </g>
</svg>
